<?xml version="1.0" encoding="UTF-8"?>
<svg id="Capa_2" data-name="Capa 2" xmlns="http://www.w3.org/2000/svg" viewBox="0 0 188.19 104.5">
  <defs>
    <style>
      .cls-1 {
        fill: #1d1d1b;
      }
    </style>
  </defs>
  <g id="Capa_1-2" data-name="Capa 1">
    <g>
      <path d="M177.41,49.52c1.2-10.01,13.84-20.59,10.09-30.99-1.62-4.5-9.76-2.75-13-1.06-5.65,2.95-2.69,11.86-2.92,17.05-.03.69-.99,5.62-1.36,5.71-.86-.39-1.17-1.65-1.44-2.49-2.76-7.58,4.41-21.49-9.35-18.12-8.5,1.76-10.59,6.76-5.86,14.13,3.49,5.43,12.83,14.24,8.15,21.12-1.88,2.76-5.08,4.48-6.84,7.42-.87,1.46-1.56,3.32-1.51,5.04-.19.02-.2-.3-.24-.44-.92-3.27-1-8.51-3.62-10.86-3.39-3.05-8.01,1.08-11.93.32-2.32-.45-3.17-4.05-3.13-6.05,1.85-.2,3.9-.49,4.3-2.64.23-1.25,0-3.78-.75-4.82-.66-.92-1.75-1.05-2.81-.98-.67-9.56,17.12,1.31,14.63-13.05-.68-4.86-2.26-6.4-7.2-6.08-4.36.28-10.25,1.31-14.4,2.65-10.31,3.33-5.74,14-4.61,21.77,1.04,7.16-2.19,13.79-.08,20.94,2.17,7.35,10.11,8.57,16.71,9.56,3.46.52,9.97,1.61,11.84-2.35l1.02-4.55c.39,4,.63,8.41,4.49,10.63,2.74,1.58,8.91,3.2,10.59-.49,1.58-3.47-1.18-7.41.41-11,1.23-2.78,3.05-1.56,3.82.69,1.7,4.94-1.76,9.41,2.28,14.17,1.97,2.33,6.66,4.46,9.71,3.85,2.77-.55,3.1-5.21,3.28-7.46.43-5.37-.12-10.91-2.49-15.8-2.87-5.89-8.68-8.2-7.77-15.83Z"/>
      <path d="M111.22,54.76c-.6.86-.54,2.08-1.54,2.58-2.76,1.38-4.06-2.9-4.54-4.84-.93-3.75-1.59-9.62.54-13.06,1.12-1.82,2.71-1.04,3.08.8.44,2.17-.08,3.94,2.43,4.96,3.56,1.45,7.96,0,8.78-4.02.95-4.68-.43-13.36-6.28-14.08-6.39-.79-18.56.55-21.24,7.56-2.5,6.54,2.84,13.04,1.82,19.98-.31,2.13-1.4,4.34-1.73,6.49-.15,0-.2-.17-.27-.27-2.38-3.57-5.12-8.04-4.97-12.45.25-7.34,10.2-19.04-3.92-19.47-2.85-.09-9.12.46-9.55,4.15-.44,3.83,1.43,4.63,3.4,7.14.97,1.24,2.83,5.13-.29,4.2-4.57-1.35-4.42-8.84-6.16-12.44-3.1-6.42-15.19-3.85-16.29,2.88-.58,3.53,1.53,6.18,2.52,9.32.96,3.06,1.22,7.47.94,10.66-.4,4.46-3.05,12.39-1.34,16.41,2.18,5.16,13.48,3.13,16.53-.42,4.25-4.94-3.53-14.39-5.04-19.29-.77-2.48-1.1-6.47,2.72-4.39,3.71,2.02,4.58,8.92,4.52,12.69-.09,5.58-2.21,11.7,5.77,11.97,2.62.09,8.01-.32,10.03-2.12.37-.33,1.95-2.74,2.15-2.75,1.32,3.17,3.72,4.25,6.91,4.86,3.91.76,8.1.87,12.04.69,3.43-.16,8.06-.11,9.18-4.14.94-3.38.46-11.45-2.02-14.12-2.14-2.31-6.32-2.13-8.15.49Z"/>
      <path d="M12.39,20.6c-1.87-.48-5.11-.91-6.97-.47-1.23.29-3.31,2.15-4,3.22-3.49,5.42.5,14.84.95,20.93.77,10.28-.83,20.53-.94,30.79-.06,5.23-.68,11.76,6.49,11.59,6.95-.17,16.02-4.15,19.89-10.06,4.4-6.72,5.83-21.11,5.41-29.06-.72-13.86-7.07-23.4-20.82-26.94ZM17.22,58.43c-1.7,2.85-3.61,1.52-4.44-1.06-1.06-3.28-.56-7.86-.73-11.41-.13-2.59-.44-5.48-.35-8.05.04-1.18.05-2.72,1.47-3,3.11-.63,4.31,2.21,4.89,4.69.96,4.06,1.3,15.27-.83,18.83Z"/>
      <path d="M49.23,31.07c-1.29-3.93-6.07-5.55-9.87-5.05-10.25,1.34-3.45,13.6-2.71,19.51,1.09,8.67-1.47,17.46-1.57,26.03-.09,7.28,3.84,7.84,9.94,5.94,16.52-5.16,3.32-16.76,2.29-26.42-.68-6.42,3.9-13.96,1.92-20Z"/>
    </g>
    <g>
      <path class="cls-1" d="M71.57.71c.96,0,1.37.02,1.78.07,1.92.27,2.98.92,3.58,2.25.74,1.61.25,4.33-1.18,6.07-.29.35-.88.86-1.29,1.1-.18.1-.31.2-.3.22.01.01.12.07.25.13,1.1.49,1.9,1.51,2.14,2.76.1.51.13,1.15.1,1.96-.07,1.78-.08,2.19-.06,2.82.04,1.02.15,1.59.52,2.77.39,1.21.46,1.64.35,2.19-.23,1.19-1.58,2.08-3.67,2.25-.37.03-.94,0-1.52-.09-.51-.07-1.02-.18-1.39-.29-.94-.29-1.3-.52-1.56-.96-.32-.53-.25-.92.47-2.66,1.75-4.23,1.94-6.29.99-7.9-.35-.59-.75-.92-1.26-1.04-.09-.02-.17-.03-.25-.04-.21,0-.4.05-.56.17-.22.17-.31.32-.4.68-.16.66,0,1.52.57,3.09.7,1.92.85,3,.54,4.4-.44,2.01-1.56,3.17-3.47,3.29-.45.03-.7,0-1.55-.14-.14-.02-.28-.05-.42-.08-1.28-.26-2.08-.61-2.91-1.21-.81-.58-1.2-1.25-1.23-2.13,0-.27.04-.51.2-1.09.27-.93.54-1.44,1.29-2.56.3-.45.73-1.1.96-1.45,1.1-1.68,1.77-3.2,2.05-4.55.29-1.41.29-2.04,0-3.73t0,0c-.21-1.17-.24-1.56-.14-2.27.09-.7.22-1.06.55-1.6.71-1.14,1.86-1.88,3.57-2.23.79-.16,1.56-.21,3.07-.22.05,0,.09,0,.14,0M70.43,7.8c.14,0,.3-.05.45-.15.18-.12.49-.51.65-.85.06-.12.15-.45.2-.78.08-.48.09-.63.05-.96-.11-.88-.51-1.39-.95-1.4-.19,0-.38.1-.57.3-.38.42-.64,1.09-.71,1.81-.05.53-.02.86.11,1.28.16.48.43.74.76.74M71.58,0s-.09,0-.14,0c-1.57,0-2.37.06-3.2.23-1.92.39-3.23,1.28-4.05,2.61-.4.64-.56,1.11-.67,1.93-.12.79-.09,1.25.11,2.48.26,1.63.25,2.19-.04,3.52-.28,1.25-.94,2.71-2,4.29-.08.12-.16.25-.25.37-.24.36-.48.71-.73,1.06-.8,1.15-1.11,1.72-1.4,2.7-.17.57-.24.88-.23,1.24.03,1.06.55,1.93,1.55,2.67.95.7,1.87,1.12,3.28,1.43.14.03.29.06.44.09.87.16,1.2.2,1.76.17.76-.04,1.61-.25,2.37-.79.05.14.11.28.2.42.41.71,1.03,1.03,2.03,1.36.39.13.93.25,1.52.34.67.1,1.29.14,1.7.11,2.55-.19,4.18-1.4,4.48-3.05.15-.79.01-1.4-.4-2.65-.36-1.11-.46-1.6-.5-2.55-.03-.62-.02-1.03.03-2.77.03-.88-.02-1.57-.13-2.13-.23-1.17-.89-2.16-1.79-2.8.31-.25.6-.54.79-.78,1.61-1.98,2.11-4.95,1.26-6.79-.7-1.54-1.96-2.33-4.12-2.63-.45-.06-.89-.08-1.87-.08t0,0ZM70.54,7.07s-.11-.14-.16-.31c-.11-.33-.13-.57-.1-1.01.05-.54.24-1.06.5-1.35,0,0,0,0,0,0,.07.08.22.35.28.83.03.25.03.33-.05.77-.06.31-.13.55-.15.61-.09.19-.24.38-.32.48h0ZM70.23,17.7c-.13-.53-.31-1.1-.55-1.76-.52-1.41-.69-2.22-.57-2.73.02-.08.03-.13.05-.16.02,0,.04,0,.06.01.23.06.53.19.87.77.55.93.63,2.08.15,3.87,0,0,0,0,0,0Z"/>
      <path class="cls-1" d="M83.81.77c.33,0,.62.02.8.07.5.13,1.09.5,1.42.89.57.67.85,1.65.77,2.73-.05.65-.13,1.07-.48,2.35-.59,2.14-.77,3.09-.8,4.65-.04,1.85.09,2.5,1.24,5.35.34.84.71,1.81.82,2.12,1.02,3.01.4,5.64-1.91,6.61-.86.36-2.23.54-3.49.46-.26-.02-.52-.04-.77-.08-.57-.09-1.21-.31-1.6-.54-.47-.28-.95-.85-1.15-1.34-.5-1.2-.33-2.67.57-6.14.86-3.35.99-4.09,1.2-6.18.14-1.38.16-1.82.13-2.34,0,0,0,0,0,0-.05-1.22-.11-1.55-.51-2.89-.41-1.36-.51-1.87-.47-2.55.04-.88.3-1.46.93-2.08.46-.45.85-.68,1.53-.87.45-.13,1.16-.2,1.75-.2M83.81.07c-.69,0-1.46.09-1.95.23-.8.23-1.29.52-1.83,1.06-.75.74-1.09,1.51-1.14,2.57-.05.82.09,1.44.48,2.79.37,1.3.42,1.58.46,2.73.02.49,0,.92-.15,2.24-.22,2.05-.35,2.74-1.23,6.04-.98,3.66-1.17,5.27-.58,6.7.27.67.87,1.4,1.5,1.78.48.3,1.21.56,1.89.67.27.04.55.07.84.09,1.41.1,2.89-.11,3.85-.52,2.79-1.19,3.57-4.43,2.38-7.85-.12-.34-.5-1.32-.85-2.16-1.12-2.72-1.24-3.29-1.21-5.01.02-1.5.18-2.38.75-4.47.36-1.32.44-1.78.49-2.48.09-1.26-.26-2.43-.95-3.23-.43-.5-1.14-.94-1.78-1.11-.24-.06-.57-.1-.98-.1t0,0Z"/>
      <path class="cls-1" d="M95.03.74c3.02,0,4.04.11,4.78.5.49.26.84.72.99,1.31.09.34.18,1.11.28,2.19.09.98.08,1.19-.2,1.53-.21.27-.39.39-.8.54-.61.23-.96.27-2.56.29-2.22.02-2.82.16-2.99.68-.06.17-.05.41.02.55.05.11.07.11.69.13.74.02.96.08,1.28.35.33.28.43.52.49,1.13.08.77.04,1.5-.1,1.82-.21.48-.62.72-1.39.78-.27.02-.42.05-.43.09-.03.08.27.89.52,1.37.11.22.48.87.83,1.45,2.87,4.73,3.85,7.58,2.5,9.18-.33.4-.7.67-1.36.95-.52.23-1.52.51-2.2.63-.3.05-.76.08-1.21.1-.57.02-1.14,0-1.44-.05-.54-.09-.83-.18-1.23-.37-.83-.39-1.56-1.17-1.94-2.03-.56-1.24-.56-2.54-.13-5.64.31-2.23.34-2.65.38-4.19,0,0,0,0,0,0,.05-2.16-.04-2.87-.63-5.77-.49-2.38-.49-2.4-.48-3.42.01-.74.02-.92.11-1.21.35-1.26,1-1.99,2.21-2.48.51-.21.97-.32,1.49-.38.23-.02,1.36-.04,2.51-.04M95.03.04s0,0,0,0c0,0,0,0,0,0-1.03,0-2.28.02-2.57.04-.59.06-1.11.19-1.69.42-1.41.57-2.22,1.48-2.63,2.94-.11.38-.12.62-.14,1.39-.02,1.11,0,1.19.47,3.58.56,2.86.64,3.51.57,5.6-.05,1.51-.08,1.91-.41,4.08-.49,3.3-.48,4.74.16,6.19.47,1.07,1.35,2.04,2.37,2.53.46.23.83.34,1.44.45.5.08,1.34.07,1.59.06.3,0,.88-.04,1.32-.11.75-.13,1.83-.45,2.4-.7.78-.35,1.27-.71,1.68-1.22,1.92-2.38.13-5.97-2.49-10.25-.37-.61-.72-1.2-.81-1.38-.06-.12-.13-.27-.19-.41.57-.11,1.19-.4,1.51-1.15.28-.67.17-1.85.14-2.2-.07-.69-.22-1.18-.77-1.64-.24-.2-.46-.33-.71-.41.35-.02.78-.03,1.3-.04,1.58-.02,2.07-.05,2.81-.34.46-.17.76-.35,1.08-.75.44-.55.43-.99.33-2.02-.12-1.16-.21-1.94-.31-2.32-.21-.79-.68-1.42-1.35-1.78-.86-.46-1.91-.58-5.1-.58t0,0Z"/>
      <path class="cls-1" d="M107.23.7c1.03,0,2.21.11,2.73.26.28.08.36.13.58.34.29.28.43.56.55,1.09.06.27.07.53.09,1.39.02.74.07,1.24.15,1.65.46,2.36,1.73,4.95,3.87,7.52.59.71,1.18,1.35,2.34,2.43,2.42,2.22,3.15,2.91,3.52,3.87.33.83.24,1.49-.29,2.21-.35.48-.67.75-1.23,1.06-.61.33-1.66.68-2.62.87-.32.06-.62.11-.9.13-2.54.21-3.77-.58-4.47-2.6-.25-.71-.34-1.49-.47-3.89-.08-1.44-.21-2.33-.44-3.37-.37-1.64-.88-2.79-1.46-3.25-.24-.19-.47-.28-.69-.28-.24,0-.47.13-.66.39-.3.39-.4.86-.34,1.63.07.89.37,1.79,1.14,3.35,1.21,2.42,1.9,4.01,2.15,5.21.16.77.16,1.25,0,1.88-.31,1.17-1.31,2.01-3.17,2.55-.49.14-1.11.26-1.64.32-.34.04-.64.06-.84.04-.86-.05-1.65-.31-2.29-.72-.7-.46-1.3-1.28-1.59-2.12-.17-.49-.34-1.98-.29-2.48.1-1.05.26-1.71.83-3.49.95-2.95,1.76-5.86,2.03-7.18.21-1.04.22-1.41.11-2.47-.09-.89-.11-.96-.38-1.97-.34-1.31-.37-1.84-.22-2.39.24-.84.85-1.46,1.73-1.74.53-.18.78-.21,1.66-.25.16,0,.33,0,.5,0M107.76,6.83c.21,0,.25-.02.38-.17.19-.21.24-.5.21-1.06-.06-.94-.42-1.98-.84-2.36-.09-.09-.17-.13-.25-.13-.08,0-.15.05-.23.15-.23.28-.32.71-.3,1.51.02.83.27,1.61.6,1.9.17.15.2.16.42.16M107.23,0c-.18,0-.36,0-.53.01-.9.04-1.23.07-1.85.28-1.09.36-1.87,1.14-2.18,2.19-.21.75-.12,1.44.21,2.73.25.97.26,1,.35,1.85.1.98.09,1.28-.12,2.24-.27,1.29-1.12,4.22-2.06,7.07-.6,1.82-.78,2.53-.89,3.65-.06.62.11,2.27.32,2.89.35,1.06,1.08,2.07,1.96,2.66.76.5,1.69.8,2.69.86.25.02.58,0,.99-.05.59-.08,1.26-.21,1.77-.37,2.17-.66,3.36-1.72,3.75-3.18,0-.01,0-.02,0-.03.93,1.21,2.37,1.7,4.49,1.5.31-.03.64-.08,1-.16,1.11-.24,2.22-.64,2.9-1.03.67-.38,1.08-.74,1.51-1.32.66-.9.78-1.75.37-2.75-.46-1.14-1.4-1.96-3.77-4.11-1.14-1.05-1.73-1.68-2.3-2.35-2.09-2.49-3.32-4.95-3.78-7.23-.07-.38-.13-.85-.15-1.56-.03-.87-.04-1.19-.12-1.54-.14-.66-.36-1.09-.76-1.48-.3-.29-.48-.4-.87-.51-.68-.2-1.99-.29-2.92-.29t0,0ZM107.63,5.85c-.08-.24-.16-.6-.18-1.03,0-.09,0-.17,0-.24.09.3.16.64.18.99,0,.11,0,.2,0,.28h0ZM110.27,17.06c-.26-.55-.57-1.15-.9-1.81-.74-1.45-1.02-2.27-1.09-3.05-.06-.7.03-.98.21-1.2.1-.13.16-.14.16-.15,0,0,.04.02.11.08.3.24.76,1.08,1.12,2.76.22,1.01.32,1.86.39,3.27,0,.03,0,.07,0,.1t0,0Z"/>
    </g>
    <g>
      <path class="cls-1" d="M60.23,78.62c1.47-.42,3.02-.79,3.86-.94,2.99-.53,4.11-.54,4.99-.27,1.44.42,1.93,1.73,2.37,5.29.47,3.77.26,5.41-.72,6.82-.49.7-.95,1.1-2.35,2-1.6,1.04-2.25,1.65-2.54,2.39-.29.74-.08,1.5.48,1.91.26.18.54.27.83.27.23,0,.46-.07.69-.2.22-.12.42-.32.93-.95.69-.85.86-1.02,1.35-1.3.38-.22.83-.35,1.29-.36.43-.01.87.06,1.28.23,0,0,0,0,0,0,.36.15,1.06.7,1.36,1.07,1.08,1.32,1.92,4.33,1.69,6.05-.19,1.5-.98,2.33-2.51,2.71-.91.23-1.99.33-4.38.41-.7.02-1.89.04-2.85.04-.72,0-1.31,0-1.47-.02-1.3-.12-2.1-.42-2.67-.97-.73-.69-1.08-1.63-1.42-3.21-.65-2.91-.77-5.12.4-7.42.15-.3.66-1.1,1.15-1.81,1.04-1.51,1.39-2.1,1.67-2.76.25-.59.34-.97.35-1.43,0-.59-.29-1.25-.64-1.43-.12-.06-.27-.08-.41-.06-.07.01-.14.03-.2.07-.21.13-.24.39-.17,1.32.08,1,.06,1.29-.08,1.65-.21.54-.72.86-1.55.99-.08.01-.15.02-.23.03-.85.09-1.63-.05-2.39-.43-1.36-.68-2.19-1.67-3.34-4.52-.78-2.01-.79-2.21-.44-2.74.31-.47.78-.76,2.27-1.36.53-.21,1.91-.67,3.38-1.08M59.97,77.74c-.62.18-2.7.85-3.47,1.19-1.52.66-2.24,1.07-2.71,1.78-.57.87-.43,1.34.35,3.27,1.11,2.67,2.05,3.99,3.86,4.89.97.47,1.98.68,3.04.57.09,0,.18-.02.27-.03.1-.01.2-.03.3-.05-.11.17-.24.35-.37.55-.45.66-1.01,1.53-1.18,1.88-1.2,2.41-1.03,4.75-.32,7.78.39,1.78.8,2.86,1.67,3.7.69.68,1.63,1.04,3.09,1.19.18.02.69.03,1.53.03.89,0,2.12-.01,2.87-.04,2.46-.09,3.56-.19,4.53-.44,1.79-.45,2.8-1.48,3.03-3.25.27-1.89-.62-5.09-1.82-6.58-.36-.45-1.18-1.13-1.74-1.36-.53-.22-1.1-.32-1.66-.3-.59.02-1.15.18-1.62.46-.59.35-.81.59-1.49,1.45-.44.55-.62.74-.76.82-.14.08-.27.12-.39.12-.1,0-.17-.02-.25-.08-.2-.14-.3-.57-.11-1.04.25-.63.85-1.17,2.33-2.12,1.46-.93,1.96-1.36,2.5-2.12,1.07-1.53,1.35-3.34.88-7.33-.42-3.58-.93-5.65-3.05-6.29-1.03-.31-2.19-.31-5.37.3-.95.18-2.65.64-3.92,1.03t0,0Z"/>
      <path class="cls-1" d="M83.02,74.51c.79-.07,1.57-.05,2.48.07,2.3.29,3.54.88,4.53,2,.91,1.03,1.51,2.56,1.68,4.09.14,1.26.04,2.24-.47,5.27-.58,3.45-.66,4.52-.53,6.15.1,1.2.28,1.96.97,4.14.27.87.39,1.42.45,2.1.1,1.09-.05,2.05-.41,2.84-.59,1.26-1.57,1.92-3.33,2.26-.99.19-2.68.34-4.03.35-.28,0-.55,0-.77,0-.34,0-.59,0-.64,0-1.84-.21-2.87-.86-3.58-2.18-.41-.76-.59-1.5-.72-2.73-.1-.96-.09-1.54.02-2.87.22-2.84.18-3.71-.15-5.01-.3-1.17-.65-1.98-1.65-3.79-1.74-3.1-2.23-5.3-1.33-7.68.35-.94,1.29-2.22,2.23-2.99,1.32-1.08,1.97-1.41,3.75-1.8.53-.11,1.02-.19,1.51-.24M85.57,95.53c.12,0,.24-.03.38-.1,0,0,0,0,0,0,1.01-.49,1.62-3.07,1.24-5.98-.27-2.05-.88-3.93-1.76-5.25-.56-.84-1.09-1.23-1.64-1.2-.23.01-.32.06-.56.29-.68.65-1.06,2.19-1.07,4.05,0,.81.26,2.81.46,3.6.61,2.34,1.59,4.06,2.52,4.49.16.07.3.11.43.11M82.92,73.31c-.51.05-1.04.13-1.61.26-1.9.44-2.68.84-4.09,2.03-1.07.91-2.1,2.34-2.51,3.45-1.01,2.73-.45,5.18,1.46,8.51.98,1.71,1.3,2.45,1.59,3.53.31,1.19.36,2,.17,4.76-.1,1.37-.1,2.01,0,3.02.14,1.34.36,2.18.81,3.03.81,1.53,2.05,2.33,4.12,2.57.04,0,.14.01.72.01.23,0,.5,0,.78,0,1.4-.02,3.11-.17,4.15-.36,1.97-.38,3.16-1.19,3.84-2.65.42-.9.59-1.99.49-3.2-.06-.73-.18-1.32-.47-2.26-.66-2.13-.82-2.83-.91-3.97-.11-1.54-.02-2.59.57-5.9.55-3.13.66-4.18.52-5.59-.17-1.79-.87-3.59-1.94-4.84-1.13-1.31-2.56-2.02-5.06-2.34-.98-.12-1.82-.14-2.64-.06t0,0ZM85.52,94.78s-.04,0-.12-.04c-.58-.27-1.46-1.67-2.03-3.94-.18-.71-.41-2.63-.4-3.36.03-1.89.44-3.03.83-3.38.03-.03.06-.06.08-.08.27,0,.57.27.91.78.79,1.15,1.36,2.9,1.62,4.77.4,2.85-.26,4.93-.82,5.22-.05.03-.08.03-.08.03t0,0Z"/>
      <path class="cls-1" d="M102.95,74.35c1.5.11,3.07.31,3.9.47,2.95.56,4,.94,4.72,1.51,1.17.92,1.16,2.31.1,5.93-1.13,3.84-2.06,5.47-3.59,6.83-.77.68-1.38,1.04-3.11,1.9-1.97.99-2.85,1.63-3.42,2.43-.57.8-.66,1.64-.24,2.09.19.21.43.31.72.31.23,0,.48-.06.75-.19.26-.12.52-.33,1.24-.97.99-.87,1.22-1.04,1.8-1.31.46-.21.94-.32,1.4-.31.42,0,.83.11,1.17.31,0,0,0,0,0,0,.3.17.78.76.95,1.15.57,1.38.52,4.39.04,6.12-.43,1.5-1.26,2.33-2.81,2.71-.92.23-2,.33-4.4.41-.7.02-1.89.04-2.85.04-.72,0-1.31,0-1.47-.02-1.29-.13-2.08-.42-2.61-.98-.66-.7-.91-1.65-.84-3.34.12-3.1,1.03-5.72,3.13-8.34.27-.34,1.12-1.24,1.9-2.02,1.66-1.66,2.25-2.28,2.81-3,.5-.65.76-1.07.97-1.59.27-.68.3-1.5.04-1.79-.08-.1-.22-.15-.35-.16-.07,0-.15,0-.21.04-.25.1-.4.41-.75,1.52-.38,1.2-.53,1.53-.82,1.93-.44.61-1.06.91-1.89.95-.08,0-.15,0-.22,0-.83-.02-1.48-.31-1.99-.91-.92-1.13-1.16-2.51-.91-6.91.17-3.15.23-3.53.76-4.1.47-.53,1.01-.71,2.6-.83.56-.04,2,0,3.5.12M103.05,73.15c-.64-.06-2.79-.2-3.62-.13-1.64.12-2.44.32-3.15,1.14-.86.97-.9,1.85-1.04,4.96-.2,4.24-.04,6.15,1.19,7.61.65.76,1.5,1.14,2.52,1.16.09,0,.17,0,.26,0,.1,0,.2-.01.3-.02-.18.19-.38.39-.6.61-.73.74-1.65,1.72-1.96,2.12-2.2,2.79-3.15,5.6-3.27,8.84-.07,1.89.24,2.99,1.04,3.85.65.68,1.59,1.05,3.05,1.19.18.02.69.03,1.53.03.89,0,2.12-.01,2.87-.04,2.46-.09,3.56-.19,4.54-.44,1.81-.45,2.82-1.48,3.34-3.25.53-1.89.61-5.08-.02-6.63-.2-.46-.75-1.19-1.21-1.46-.44-.25-.96-.4-1.51-.41-.58-.01-1.2.12-1.76.38-.71.33-1.03.58-2.01,1.46-.63.57-.88.77-1.04.85-.16.08-.31.12-.42.11-.1,0-.16-.03-.22-.09-.14-.16-.09-.63.28-1.13.49-.67,1.28-1.23,3.1-2.14,1.79-.88,2.45-1.28,3.3-2.01,1.68-1.47,2.73-3.24,3.95-7.24,1.09-3.58,1.35-5.66-.37-7.06-.84-.69-1.92-1.11-5.08-1.74-.94-.19-2.68-.4-3.99-.5t0,0Z"/>
      <path class="cls-1" d="M126.81,78.67c1.7.48,3.69,1.2,4.38,1.57,1.1.58,1.44,1.18,1.28,2.23-.1.64-.32,1.3-.72,2.16-.77,1.65-1.55,2.55-2.5,3.06-.72.38-1.29.49-2.43.44-.3-.01-.65-.04-1-.08-.64-.07-1.27-.18-1.59-.29-.72-.24-1.14-.65-1.25-1.23-.03-.18-.02-.54.02-.89.11-.76.12-1.12.03-1.3-.04-.1-.11-.16-.18-.17-.24-.04-.6.39-.82,1.05-.42,1.25-.11,2.25.84,2.89.45.3,1.26.67,2.62,1.17,1.77.65,2.48,1.15,2.86,2,0,0,0,0,0,0,.39.85.34,1.8-.07,3.3-.22.69-1.14,3.15-1.42,3.86-.3.68-.69,1.5-.95,2-1.05,1.98-2.16,2.87-4.58,3.17-.78.1-2.2.16-3.48.16-.61,0-1.18-.01-1.64-.04,0,0,0,0,0,0-2.63-.16-3.75-.69-4.08-1.97-.16-.69-.15-1.65.25-3.8.61-3.01,1.09-4.09,2.05-5.13.45-.49.99-.87,1.53-1.07.5-.19.86-.25,1.38-.22.5.02.88.14,1.33.41.68.4,1.01.9,1.49,2.16.35.91.78,1.35,1.32,1.36.12,0,.24-.01.38-.05.98-.29,1.21-1.49.45-2.52-.35-.46-.88-.91-1.55-1.32-.57-.35-1.06-.56-2.82-1.25-.95-.37-1.49-.64-1.92-.97-1.28-.99-1.55-2.88-.7-6.58.45-1.95.9-3.12,1.6-3.95.39-.47.67-.69,1.21-.94,1.12-.52,2.34-.57,4.62-.12.75.15,1.86.37,2.47.5.45.09,1.01.23,1.61.4M127.07,77.79c-.65-.2-1.21-.34-1.67-.44-.6-.13-1.71-.37-2.46-.54-2.48-.53-3.83-.47-5.13.14-.67.31-1.08.64-1.56,1.24-.82,1.01-1.33,2.33-1.8,4.5-.89,4.06-.52,6.19.98,7.33.37.27.8.51,1.44.78-.36.03-.69.12-1.09.27-.69.26-1.35.73-1.91,1.33-1.15,1.27-1.65,2.61-2.22,5.53-.41,2.26-.41,3.26-.22,4.04.48,1.83,2.27,2.31,4.71,2.46.46.03,1.04.04,1.69.04,1.39,0,2.79-.06,3.57-.17,2.67-.33,3.98-1.43,5.15-3.65.28-.53.69-1.4,1.01-2.11.3-.77,1.27-3.27,1.52-4.01.47-1.62.53-2.65.1-3.61-.39-.87-1.1-1.45-2.64-2.09.02,0,.04,0,.06,0,1.17.03,2-.06,3.05-.61,1.18-.62,2.09-1.61,2.97-3.41.43-.9.66-1.57.77-2.26.21-1.33-.32-2.23-1.75-3.03-.82-.45-2.95-1.27-4.56-1.75t0,0ZM121.69,94.78c-.07,0-.41-.06-.77-1.03-.25-.68-.48-1.17-.74-1.55,0,0,.01,0,.02,0,.61.36,1.09.77,1.4,1.17.43.57.41,1.1.3,1.3-.03.06-.05.07-.1.08-.04.01-.07.02-.1.01t0,0Z"/>
    </g>
  </g>
</svg>