<?xml version="1.0" encoding="UTF-8"?>
<svg id="Capa_2" data-name="Capa 2" xmlns="http://www.w3.org/2000/svg" viewBox="0 0 188.19 73.04">
  <g id="Capa_1-2" data-name="Capa 1">
    <g>
      <path d="M177.41,33.84c1.2-10.01,13.84-20.59,10.09-30.99-1.62-4.5-9.76-2.75-13-1.06-5.65,2.95-2.69,11.86-2.92,17.05-.03.69-.99,5.62-1.36,5.71-.86-.39-1.17-1.65-1.44-2.49-2.76-7.58,4.41-21.49-9.35-18.12-8.5,1.76-10.59,6.76-5.86,14.13,3.49,5.43,12.83,14.24,8.15,21.12-1.88,2.76-5.08,4.48-6.84,7.42-.87,1.46-1.56,3.32-1.51,5.04-.19.02-.2-.3-.24-.44-.92-3.27-1-8.51-3.62-10.86-3.39-3.05-8.01,1.08-11.93.32-2.32-.45-3.17-4.05-3.13-6.05,1.85-.2,3.9-.49,4.3-2.64.23-1.25,0-3.78-.75-4.82-.66-.92-1.75-1.05-2.81-.98-.67-9.56,17.12,1.31,14.63-13.05-.68-4.86-2.26-6.4-7.2-6.08-4.36.28-10.25,1.31-14.4,2.65-10.31,3.33-5.74,14-4.61,21.77,1.04,7.16-2.19,13.79-.08,20.94,2.17,7.35,10.11,8.57,16.71,9.56,3.46.52,9.97,1.61,11.84-2.35l1.02-4.55c.39,4,.63,8.41,4.49,10.63,2.74,1.58,8.91,3.2,10.59-.49,1.58-3.47-1.18-7.41.41-11,1.23-2.78,3.05-1.56,3.82.69,1.7,4.94-1.76,9.41,2.28,14.17,1.97,2.33,6.66,4.46,9.71,3.85,2.77-.55,3.1-5.21,3.28-7.46.43-5.37-.12-10.91-2.49-15.8-2.87-5.89-8.68-8.2-7.77-15.83Z"/>
      <path d="M111.22,39.08c-.6.86-.54,2.08-1.54,2.58-2.76,1.38-4.06-2.9-4.54-4.84-.93-3.75-1.59-9.62.54-13.06,1.12-1.82,2.71-1.04,3.08.8.44,2.17-.08,3.94,2.43,4.96,3.56,1.45,7.96,0,8.78-4.02.95-4.68-.43-13.36-6.28-14.08-6.39-.79-18.56.55-21.24,7.56-2.5,6.54,2.84,13.04,1.82,19.98-.31,2.13-1.4,4.34-1.73,6.49-.15,0-.2-.17-.27-.27-2.38-3.57-5.12-8.04-4.97-12.45.25-7.34,10.2-19.04-3.92-19.47-2.85-.09-9.12.46-9.55,4.15-.44,3.83,1.43,4.63,3.4,7.14.97,1.24,2.83,5.13-.29,4.2-4.57-1.35-4.42-8.84-6.16-12.44-3.1-6.42-15.19-3.85-16.29,2.88-.58,3.53,1.53,6.18,2.52,9.32.96,3.06,1.22,7.47.94,10.66-.4,4.46-3.05,12.39-1.34,16.41,2.18,5.16,13.48,3.13,16.53-.42,4.25-4.94-3.53-14.39-5.04-19.29-.77-2.48-1.1-6.47,2.72-4.39,3.71,2.02,4.58,8.92,4.52,12.69-.09,5.58-2.21,11.7,5.77,11.97,2.62.09,8.01-.32,10.03-2.12.37-.33,1.95-2.74,2.15-2.75,1.32,3.17,3.72,4.25,6.91,4.86,3.91.76,8.1.87,12.04.69,3.43-.16,8.06-.11,9.18-4.14.94-3.38.46-11.45-2.02-14.12-2.14-2.31-6.32-2.13-8.15.49Z"/>
      <path d="M12.39,4.92c-1.87-.48-5.11-.91-6.97-.47-1.23.29-3.31,2.15-4,3.22-3.49,5.42.5,14.84.95,20.93.77,10.28-.83,20.53-.94,30.79-.06,5.23-.68,11.76,6.49,11.59,6.95-.17,16.02-4.15,19.89-10.06,4.4-6.72,5.83-21.11,5.41-29.06-.72-13.86-7.07-23.4-20.82-26.94ZM17.22,42.75c-1.7,2.85-3.61,1.52-4.44-1.06-1.06-3.28-.56-7.86-.73-11.41-.13-2.59-.44-5.48-.35-8.05.04-1.18.05-2.72,1.47-3,3.11-.63,4.31,2.21,4.89,4.69.96,4.06,1.3,15.27-.83,18.83Z"/>
      <path d="M49.23,15.39c-1.29-3.93-6.07-5.55-9.87-5.05-10.25,1.34-3.45,13.6-2.71,19.51,1.09,8.67-1.47,17.46-1.57,26.03-.09,7.28,3.84,7.84,9.94,5.94,16.52-5.16,3.32-16.76,2.29-26.42-.68-6.42,3.9-13.96,1.92-20Z"/>
    </g>
  </g>
</svg>